External Loads File
version=1
nRows=94
nColumns=13
Range=5.000000e-03-10 seconds
endheader
time 	forceRightX 	forceRightY 	forceRightZ 	pointRightX 	pointRightY 	pointRightZ 	forceLeftX 	forceLeftY 	forceLeftZ 	pointLeftX 	pointLeftY 	pointLeftZ 		
2.505000 43.949872 75.402059 -0.000000 0.087902 0.181362 -0.118055 -25.324317 225.004200 -0.000000 0.312714 0.442663 -0.363517
2.510000 35.289635 61.105414 -0.000000 0.082915 0.188483 -0.118043 -38.315851 223.547991 -0.000000 0.318654 0.434456 -0.363729
2.515000 28.490555 51.240431 -0.000000 0.078163 0.196103 -0.118049 -51.819278 222.593319 -0.000000 0.324299 0.425762 -0.363829
2.520000 23.644381 44.937476 -0.000000 0.074213 0.204151 -0.118091 -65.318122 223.117888 -0.000000 0.329475 0.415273 -0.364097
2.525000 20.372803 41.314305 -0.000000 0.070541 0.212671 -0.118041 -79.452212 225.707585 -0.000000 0.334290 0.405512 -0.364276
2.530000 18.391522 39.339721 -0.000000 0.067407 0.221727 -0.118151 -93.613212 231.052148 -0.000000 0.338516 0.395596 -0.364388
2.535000 17.262567 38.152505 -0.000000 0.064967 0.230929 -0.118155 -107.505377 239.544368 -0.000000 0.342131 0.385243 -0.364365
2.540000 16.575865 37.073149 -0.000000 0.062952 0.240310 -0.118273 -120.657376 251.482430 -0.000000 0.345165 0.374632 -0.364378
2.545000 15.951146 35.640997 -0.000000 0.061566 0.249954 -0.118347 -132.726169 266.984374 -0.000000 0.347603 0.363861 -0.364395
2.550000 15.050392 33.621744 -0.000000 0.060731 0.259850 -0.118412 -143.647030 285.934667 -0.000000 0.349213 0.353200 -0.364301
2.555000 13.699135 30.932985 -0.000000 0.060562 0.270016 -0.118502 -152.547269 308.520789 -0.000000 0.350278 0.342114 -0.364422
2.560000 11.681307 27.694027 -0.000000 0.060954 0.280365 -0.118602 -159.302545 334.377091 -0.000000 0.350751 0.330836 -0.364436
2.565000 8.870824 24.149583 -0.000000 0.061932 0.290756 -0.118677 -164.026790 362.841244 -0.000000 0.350434 0.319637 -0.364210
2.570000 5.348943 20.603675 -0.000000 0.063358 0.301263 -0.118710 -166.006339 393.521549 -0.000000 0.349368 0.308294 -0.364065
2.575000 1.276333 17.402896 -0.000000 0.065514 0.311829 -0.118808 -165.333091 425.627002 -0.000000 0.349244 0.297011 -0.365490
2.580000 -3.085547 14.848433 -0.000000 0.068337 0.322329 -0.119191 -161.756805 458.548333 -0.000000 0.346293 0.285768 -0.364342
2.585000 -7.488125 13.175766 -0.000000 0.071536 0.332853 -0.119566 -155.467888 491.541054 -0.000000 0.343625 0.274819 -0.364271
2.590000 -11.704975 12.542857 -0.000000 0.075561 0.343249 -0.119613 -146.235201 524.036913 -0.000000 0.340328 0.264122 -0.364172
2.595000 -15.561746 13.017631 -0.000000 0.079715 0.353373 -0.119899 -134.479646 555.362822 -0.000000 0.336449 0.253623 -0.363993
2.600000 -18.887371 14.629336 -0.000000 0.084659 0.363425 -0.120242 -119.693216 585.243970 -0.000000 0.331965 0.243401 -0.363892
2.605000 -21.560681 17.336620 -0.000000 0.090039 0.373488 -0.120644 -102.421175 613.265005 -0.000000 0.326944 0.233587 -0.363697
2.610000 -23.503478 21.036892 -0.000000 0.096050 0.382903 -0.121010 -83.843768 639.038179 -0.000000 0.321375 0.224150 -0.363510
2.615000 -24.499625 25.756991 -0.000000 0.102428 0.392193 -0.121311 -60.726704 662.754646 -0.000000 0.313800 0.214919 -0.355548
2.620000 -24.776134 31.062922 -0.000000 0.109268 0.401108 -0.121499 -41.281735 683.475797 -0.000000 0.308671 0.206171 -0.363230
2.625000 -24.077884 36.983205 -0.000000 0.115900 0.409485 -0.122567 -20.077388 701.721618 -0.000000 0.301657 0.197879 -0.363080
2.630000 -22.362546 43.295493 -0.000000 0.123623 0.417499 -0.122978 2.764695 717.300926 -0.000000 0.294182 0.190230 -0.362934
2.635000 -18.770230 50.091951 -0.000000 0.132037 0.425205 -0.122994 40.116094 729.407039 -0.000000 0.286281 0.173556 -0.362852
2.640000 -15.407007 56.288559 -0.000000 0.141968 0.432226 -0.121955 61.969971 738.920138 -0.000000 0.277994 0.169520 -0.362723
2.645000 -12.305469 62.029960 -0.000000 0.149966 0.438675 -0.122594 74.989661 746.472972 -0.000000 0.269412 0.169904 -0.362589
2.650000 -8.450816 67.541817 -0.000000 0.158384 0.444651 -0.123011 95.561997 750.467830 -0.000000 0.260545 0.164437 -0.362431
2.655000 -4.689556 72.764486 -0.000000 0.167409 0.450205 -0.123171 116.202743 751.194366 -0.000000 0.251431 0.159465 -0.362298
2.660000 -1.313890 77.988105 -0.000000 0.176759 0.454967 -0.123294 135.944500 748.313800 -0.000000 0.242069 0.155164 -0.362120
2.665000 1.505544 83.545498 -0.000000 0.185889 0.459530 -0.123648 153.690144 741.488040 -0.000000 0.232548 0.151600 -0.361949
2.670000 3.989817 89.642677 -0.000000 0.195389 0.463228 -0.123752 170.714298 729.924159 -0.000000 0.222818 0.148629 -0.361757
2.675000 6.196956 96.353981 -0.000000 0.205014 0.466360 -0.123860 186.207389 713.240995 -0.000000 0.212977 0.146443 -0.361482
2.680000 8.170002 103.681508 -0.000000 0.214531 0.468833 -0.123984 199.378792 691.128983 -0.000000 0.203072 0.144981 -0.361277
2.685000 9.945794 111.571688 -0.000000 0.223792 0.470709 -0.124067 209.592272 663.372085 -0.000000 0.193136 0.144185 -0.361112
2.690000 11.664274 119.924442 -0.000000 0.233050 0.471820 -0.124080 216.786475 629.801536 -0.000000 0.183313 0.144128 -0.360891
2.695000 13.314442 128.644910 -0.000000 0.242079 0.472297 -0.124123 219.906565 590.905636 -0.000000 0.173665 0.144548 -0.360675
2.700000 15.037269 137.650182 -0.000000 0.250894 0.472065 -0.124115 218.856355 547.279802 -0.000000 0.164220 0.145939 -0.360549
2.705000 16.793337 146.957057 -0.000000 0.259533 0.471217 -0.124114 213.141124 500.154932 -0.000000 0.155126 0.147722 -0.360399
2.710000 18.605963 156.697551 -0.000000 0.267849 0.469678 -0.124190 203.017002 450.942419 -0.000000 0.146330 0.150197 -0.360323
2.715000 20.540807 167.112657 -0.000000 0.275928 0.467387 -0.124128 189.071246 401.230011 -0.000000 0.137841 0.153224 -0.360233
2.720000 22.600944 178.526018 -0.000000 0.283665 0.464467 -0.124034 171.840580 352.769452 -0.000000 0.129738 0.156948 -0.360217
2.725000 24.855865 191.265177 -0.000000 0.290955 0.460831 -0.123960 152.182695 307.179228 -0.000000 0.121900 0.161115 -0.360510
2.730000 27.483749 205.563572 -0.000000 0.298213 0.456498 -0.123661 131.268517 265.847670 -0.000000 0.114585 0.165836 -0.360365
2.735000 30.231523 221.532388 -0.000000 0.304962 0.451488 -0.123128 109.861052 230.128577 -0.000000 0.107667 0.170914 -0.360186
2.740000 33.249592 238.984965 -0.000000 0.311535 0.445811 -0.122882 89.353624 200.599052 -0.000000 0.101098 0.176506 -0.360265
2.745000 36.343534 257.542501 -0.000000 0.317548 0.438959 -0.122272 70.641921 177.449930 -0.000000 0.094992 0.182603 -0.360262
2.750000 38.728524 276.729178 -0.000000 0.323273 0.432319 -0.121796 54.163086 160.374242 -0.000000 0.089271 0.189022 -0.360237
2.755000 40.888907 295.778570 -0.000000 0.328626 0.424746 -0.121770 40.952817 148.253003 -0.000000 0.083928 0.196069 -0.360240
2.760000 42.431277 314.022242 -0.000000 0.333660 0.416659 -0.121221 31.125346 139.899249 -0.000000 0.079011 0.203686 -0.360275
2.765000 42.988386 330.861393 -0.000000 0.338093 0.408104 -0.121512 24.548750 134.004611 -0.000000 0.074561 0.211806 -0.360537
2.770000 42.631528 345.796118 -0.000000 0.341939 0.399093 -0.121486 21.021078 129.394395 -0.000000 0.070420 0.220473 -0.360786
2.775000 41.795439 358.505317 -0.000000 0.345589 0.389113 -0.121231 20.254890 125.206090 -0.000000 0.066878 0.229540 -0.360856
2.780000 39.861128 369.055992 -0.000000 0.348610 0.378812 -0.120844 21.434922 120.956946 -0.000000 0.063921 0.239094 -0.361027
2.785000 36.791308 377.705629 -0.000000 0.351452 0.368345 -0.121586 23.887092 116.403394 -0.000000 0.061546 0.248840 -0.361124
2.790000 32.899424 384.914634 -0.000000 0.353763 0.357387 -0.121311 27.068560 111.513318 -0.000000 0.059751 0.258662 -0.361443
2.795000 28.798735 391.314335 -0.000000 0.355425 0.346119 -0.121252 30.664835 106.363850 -0.000000 0.058462 0.268906 -0.361254
2.800000 23.967583 397.743830 -0.000000 0.356545 0.334923 -0.121277 34.225170 101.125821 -0.000000 0.057803 0.279203 -0.361467
2.805000 19.233357 404.972834 -0.000000 0.357107 0.323572 -0.121291 37.757174 95.805072 -0.000000 0.057733 0.289651 -0.361574
2.810000 15.511153 413.737537 -0.000000 0.357093 0.312028 -0.120719 41.253020 90.330003 -0.000000 0.058285 0.300547 -0.361635
2.815000 11.951526 424.706451 -0.000000 0.356456 0.300637 -0.120497 44.297168 84.809368 -0.000000 0.059543 0.311285 -0.361829
2.820000 9.489139 438.263793 -0.000000 0.355140 0.289384 -0.120212 46.885654 79.260810 -0.000000 0.061147 0.322164 -0.361715
2.825000 8.699142 454.555422 -0.000000 0.353449 0.278053 -0.120041 48.940699 73.827181 -0.000000 0.063429 0.332990 -0.361937
2.830000 10.578344 473.396129 -0.000000 0.350834 0.266722 -0.120374 50.498669 68.637489 -0.000000 0.066851 0.343808 -0.362100
2.835000 14.460043 494.253775 -0.000000 0.347829 0.255749 -0.120251 51.418761 63.969017 -0.000000 0.070385 0.354491 -0.362192
2.840000 21.611232 516.217393 -0.000000 0.344139 0.244720 -0.120214 51.880172 59.864449 -0.000000 0.074698 0.364864 -0.362183
2.845000 31.195985 538.290699 -0.000000 0.339736 0.234316 -0.120156 51.793987 56.570549 -0.000000 0.079462 0.375005 -0.362225
2.850000 42.328877 559.553961 -0.000000 0.334727 0.224473 -0.120064 51.148758 54.273010 -0.000000 0.083938 0.384879 -0.360793
2.855000 57.059873 578.951068 -0.000000 0.329427 0.214520 -0.119599 50.283506 52.782009 -0.000000 0.089830 0.394432 -0.361046
2.860000 74.758193 595.668431 -0.000000 0.322943 0.204755 -0.119914 49.261911 52.064283 -0.000000 0.096164 0.403802 -0.361266
2.865000 88.310563 610.100834 -0.000000 0.316251 0.196773 -0.119814 47.548214 52.539747 -0.000000 0.101131 0.412750 -0.356594
2.870000 108.345789 620.549503 -0.000000 0.309109 0.188432 -0.119532 46.088297 53.215356 -0.000000 0.110148 0.421141 -0.361473
2.875000 125.626275 628.403299 -0.000000 0.301569 0.180383 -0.119377 44.095331 54.711897 -0.000000 0.117963 0.429173 -0.362575
2.880000 141.525293 633.740765 -0.000000 0.293691 0.172924 -0.119168 41.719531 56.857243 -0.000000 0.126098 0.436958 -0.362157
2.885000 155.939000 636.864760 -0.000000 0.285399 0.165832 -0.119002 39.044181 59.641996 -0.000000 0.134855 0.443738 -0.362361
2.890000 167.356097 638.350625 -0.000000 0.276948 0.159609 -0.118870 36.067246 63.145094 -0.000000 0.143218 0.450773 -0.362024
2.895000 177.527325 637.795314 -0.000000 0.267934 0.153909 -0.119006 33.081384 67.230313 -0.000000 0.152157 0.456650 -0.362067
2.900000 185.373942 635.326145 -0.000000 0.259136 0.148893 -0.118634 30.041605 71.922178 -0.000000 0.161362 0.462147 -0.362092
2.905000 192.234860 630.206846 -0.000000 0.249964 0.143449 -0.118501 27.119106 77.122213 -0.000000 0.170594 0.467123 -0.362162
2.910000 197.259776 622.183686 -0.000000 0.240564 0.139531 -0.118423 24.247536 82.822017 -0.000000 0.179906 0.471600 -0.362447
2.915000 200.808133 610.601146 -0.000000 0.231047 0.137082 -0.118307 21.530158 88.951189 -0.000000 0.189368 0.475371 -0.362437
2.920000 203.079551 594.883355 -0.000000 0.221416 0.134732 -0.118521 19.110002 95.494866 -0.000000 0.198803 0.478585 -0.362413
2.925000 204.445510 574.511389 -0.000000 0.211473 0.132883 -0.118613 17.225222 102.505733 -0.000000 0.208362 0.481118 -0.362114
2.930000 202.587471 550.155590 -0.000000 0.202102 0.131754 -0.118305 15.635426 110.182211 -0.000000 0.217543 0.482994 -0.362023
2.935000 200.130770 520.947124 -0.000000 0.191949 0.131373 -0.118253 14.997229 118.642091 -0.000000 0.226693 0.484251 -0.361961
2.940000 195.084913 487.887582 -0.000000 0.182128 0.131638 -0.118655 15.056373 128.153722 -0.000000 0.235668 0.484812 -0.361844
2.945000 186.757885 451.756522 -0.000000 0.173082 0.132410 -0.118373 15.622045 138.848163 -0.000000 0.244232 0.484699 -0.362279
2.950000 177.348781 412.319895 -0.000000 0.163731 0.134175 -0.118196 17.218963 150.559868 -0.000000 0.252789 0.483901 -0.362009
2.955000 165.617403 370.855193 -0.000000 0.154817 0.136394 -0.118100 19.151531 163.072808 -0.000000 0.260888 0.482317 -0.362075
2.960000 152.319520 327.883586 -0.000000 0.146266 0.139327 -0.118077 21.110911 176.047135 -0.000000 0.268740 0.480052 -0.362272
2.965000 138.054806 284.046244 -0.000000 0.137980 0.142830 -0.118086 22.669587 189.132476 -0.000000 0.276482 0.476805 -0.362372
2.970000 122.963239 240.263903 -0.000000 0.130067 0.146954 -0.117949 23.130217 201.983046 -0.000000 0.284060 0.472827 -0.362846
